<svg width="60" height="61" viewBox="0 0 60 61" fill="none" xmlns="http://www.w3.org/2000/svg">
<rect y="0.5" width="60" height="60" fill="black"/>
<path d="M34.5105 30.0276H33.2932L26.2423 12.2107L19.1914 30.0276H17.9741L25.6257 10.6772H26.8589L34.5105 30.0276ZM36.9609 30.0276L35.7278 30.0276L28.0762 10.6772H29.2935L36.9609 30.0276ZM41.8617 30.0276H40.6286L32.977 10.6772H34.1943L41.8617 30.0276ZM39.4113 30.0276H38.194L30.5266 10.6772H31.7439L39.4113 30.0276ZM21.626 30.0276H20.4087L26.3846 14.9141L27.0328 16.3685L21.626 30.0276ZM24.0923 30.0276H22.8591L27.6493 17.9178L28.2501 19.4829L24.0923 30.0276ZM26.5269 30.0276H25.3096L28.8508 21.048L29.4516 22.6448L26.5269 30.0276Z" fill="white"/>
<path d="M25.4895 30.0107H26.7068L33.7577 47.8276L40.8086 30.0107H42.0259L34.3743 49.3611H33.1411L25.4895 30.0107ZM23.0391 30.0107L24.2722 30.0107L31.9238 49.3611H30.7065L23.0391 30.0107ZM18.1383 30.0107H19.3714L27.023 49.3611H25.8057L18.1383 30.0107ZM20.5887 30.0107H21.806L29.4734 49.3611H28.2561L20.5887 30.0107ZM38.374 30.0107H39.5913L33.6154 45.1242L32.9672 43.6698L38.374 30.0107ZM35.9077 30.0107H37.1409L32.3507 42.1205L31.7499 40.5554L35.9077 30.0107ZM33.4731 30.0107H34.6904L31.1492 38.9903L30.5484 37.3936L33.4731 30.0107Z" fill="url(#paint0_linear_65_858)"/>
<defs>
<linearGradient id="paint0_linear_65_858" x1="31.5664" y1="48.5724" x2="30.5357" y2="31.2925" gradientUnits="userSpaceOnUse">
<stop stop-color="#1F1F1F"/>
<stop offset="1" stop-color="#B9B9B9"/>
</linearGradient>
</defs>
</svg>
